<mxfile host="app.diagrams.net" agent="Mozilla/5.0 (Macintosh; Intel Mac OS X 10_15_7) AppleWebKit/537.36 (KHTML, like Gecko) Chrome/126.0.0.0 Safari/537.36" version="24.7.6">
  <diagram name="Page-1" id="74e2e168-ea6b-b213-b513-2b3c1d86103e">
    <mxGraphModel dx="919" dy="1431" grid="1" gridSize="10" guides="1" tooltips="1" connect="1" arrows="1" fold="1" page="1" pageScale="1" pageWidth="1100" pageHeight="850" background="none" math="0" shadow="0">
      <root>
        <mxCell id="0" />
        <mxCell id="1" parent="0" />
        <mxCell id="77e6c97f196da883-1" value="Pool" style="swimlane;html=1;childLayout=stackLayout;startSize=20;rounded=0;shadow=0;labelBackgroundColor=none;strokeWidth=1;fontFamily=Verdana;fontSize=8;align=center;" parent="1" vertex="1">
          <mxGeometry x="70" y="-110" width="800" height="690" as="geometry">
            <mxRectangle x="70" y="40" width="60" height="20" as="alternateBounds" />
          </mxGeometry>
        </mxCell>
        <mxCell id="77e6c97f196da883-2" value="App" style="swimlane;html=1;startSize=20;" parent="77e6c97f196da883-1" vertex="1">
          <mxGeometry y="20" width="160" height="670" as="geometry" />
        </mxCell>
        <mxCell id="77e6c97f196da883-8" value="&lt;font style=&quot;font-size: 14px;&quot;&gt;发起小车场地建模指令&lt;/font&gt;" style="rounded=1;whiteSpace=wrap;html=1;shadow=0;labelBackgroundColor=none;strokeWidth=1;fontFamily=Verdana;fontSize=8;align=center;" parent="77e6c97f196da883-2" vertex="1">
          <mxGeometry x="20" y="34" width="100" height="65" as="geometry" />
        </mxCell>
        <mxCell id="seb6zSkZ8uJEWK3e91Ww-20" value="" style="edgeStyle=orthogonalEdgeStyle;rounded=0;orthogonalLoop=1;jettySize=auto;html=1;entryX=0.5;entryY=0;entryDx=0;entryDy=0;" parent="77e6c97f196da883-2" source="seb6zSkZ8uJEWK3e91Ww-8" target="seb6zSkZ8uJEWK3e91Ww-26" edge="1">
          <mxGeometry relative="1" as="geometry">
            <mxPoint x="70" y="305" as="targetPoint" />
          </mxGeometry>
        </mxCell>
        <mxCell id="seb6zSkZ8uJEWK3e91Ww-8" value="&lt;span style=&quot;font-size: 14px;&quot;&gt;制作多段直播文案，&lt;/span&gt;&lt;span style=&quot;font-size: 14px;&quot;&gt;每段文案指定小车巡逻点位&lt;/span&gt;" style="rounded=1;whiteSpace=wrap;html=1;shadow=0;labelBackgroundColor=none;strokeWidth=1;fontFamily=Verdana;fontSize=8;align=center;" parent="77e6c97f196da883-2" vertex="1">
          <mxGeometry x="20" y="187" width="100" height="60" as="geometry" />
        </mxCell>
        <mxCell id="seb6zSkZ8uJEWK3e91Ww-26" value="&lt;span style=&quot;font-size: 14px;&quot;&gt;选择数字人形象声音开启直播&lt;/span&gt;" style="rounded=1;whiteSpace=wrap;html=1;shadow=0;labelBackgroundColor=none;strokeWidth=1;fontFamily=Verdana;fontSize=8;align=center;" parent="77e6c97f196da883-2" vertex="1">
          <mxGeometry x="20" y="300" width="100" height="60" as="geometry" />
        </mxCell>
        <mxCell id="77e6c97f196da883-3" value="智能小车" style="swimlane;html=1;startSize=20;" parent="77e6c97f196da883-1" vertex="1">
          <mxGeometry x="160" y="20" width="160" height="670" as="geometry" />
        </mxCell>
        <mxCell id="seb6zSkZ8uJEWK3e91Ww-11" value="&lt;span style=&quot;font-size: 14px;&quot;&gt;小车开始在场地地图建模&lt;/span&gt;" style="rounded=1;whiteSpace=wrap;html=1;shadow=0;labelBackgroundColor=none;strokeWidth=1;fontFamily=Verdana;fontSize=8;align=center;" parent="77e6c97f196da883-3" vertex="1">
          <mxGeometry x="30" y="91" width="100" height="69" as="geometry" />
        </mxCell>
        <mxCell id="seb6zSkZ8uJEWK3e91Ww-32" value="&lt;span style=&quot;font-size: 14px;&quot;&gt;小车摄像头影像推流&lt;/span&gt;" style="rounded=1;whiteSpace=wrap;html=1;shadow=0;labelBackgroundColor=none;strokeWidth=1;fontFamily=Verdana;fontSize=8;align=center;" parent="77e6c97f196da883-3" vertex="1">
          <mxGeometry x="30" y="540" width="100" height="60" as="geometry" />
        </mxCell>
        <mxCell id="seb6zSkZ8uJEWK3e91Ww-51" value="&lt;span style=&quot;font-size: 14px;&quot;&gt;小车根据脚本定点巡逻&lt;/span&gt;" style="rounded=1;whiteSpace=wrap;html=1;shadow=0;labelBackgroundColor=none;strokeWidth=1;fontFamily=Verdana;fontSize=8;align=center;" parent="77e6c97f196da883-3" vertex="1">
          <mxGeometry x="30" y="430" width="100" height="60" as="geometry" />
        </mxCell>
        <mxCell id="77e6c97f196da883-4" value="业务后台" style="swimlane;html=1;startSize=20;" parent="77e6c97f196da883-1" vertex="1">
          <mxGeometry x="320" y="20" width="160" height="670" as="geometry" />
        </mxCell>
        <mxCell id="jhnfsxxz-ZlzMWsmoNj1-4" value="" style="edgeStyle=orthogonalEdgeStyle;rounded=0;orthogonalLoop=1;jettySize=auto;html=1;" edge="1" parent="77e6c97f196da883-4" source="seb6zSkZ8uJEWK3e91Ww-23" target="seb6zSkZ8uJEWK3e91Ww-49">
          <mxGeometry relative="1" as="geometry" />
        </mxCell>
        <mxCell id="seb6zSkZ8uJEWK3e91Ww-23" value="&lt;span style=&quot;font-size: 14px;&quot;&gt;开启直播间&lt;/span&gt;" style="rounded=1;whiteSpace=wrap;html=1;shadow=0;labelBackgroundColor=none;strokeWidth=1;fontFamily=Verdana;fontSize=8;align=center;" parent="77e6c97f196da883-4" vertex="1">
          <mxGeometry x="40" y="300" width="100" height="60" as="geometry" />
        </mxCell>
        <mxCell id="seb6zSkZ8uJEWK3e91Ww-49" value="&lt;span style=&quot;font-size: 14px;&quot;&gt;下发小车巡逻命令&lt;/span&gt;" style="rounded=1;whiteSpace=wrap;html=1;shadow=0;labelBackgroundColor=none;strokeWidth=1;fontFamily=Verdana;fontSize=8;align=center;" parent="77e6c97f196da883-4" vertex="1">
          <mxGeometry x="40" y="430" width="100" height="60" as="geometry" />
        </mxCell>
        <mxCell id="77e6c97f196da883-5" value="数字人服务" style="swimlane;html=1;startSize=20;" parent="77e6c97f196da883-1" vertex="1">
          <mxGeometry x="480" y="20" width="160" height="670" as="geometry" />
        </mxCell>
        <mxCell id="jhnfsxxz-ZlzMWsmoNj1-2" style="edgeStyle=orthogonalEdgeStyle;rounded=0;orthogonalLoop=1;jettySize=auto;html=1;exitX=0.5;exitY=1;exitDx=0;exitDy=0;" edge="1" parent="77e6c97f196da883-5" source="seb6zSkZ8uJEWK3e91Ww-29" target="seb6zSkZ8uJEWK3e91Ww-34">
          <mxGeometry relative="1" as="geometry" />
        </mxCell>
        <mxCell id="seb6zSkZ8uJEWK3e91Ww-29" value="&lt;span style=&quot;font-size: 14px;&quot;&gt;数字人流生成&lt;/span&gt;" style="rounded=1;whiteSpace=wrap;html=1;shadow=0;labelBackgroundColor=none;strokeWidth=1;fontFamily=Verdana;fontSize=8;align=center;" parent="77e6c97f196da883-5" vertex="1">
          <mxGeometry x="40" y="300" width="100" height="60" as="geometry" />
        </mxCell>
        <mxCell id="seb6zSkZ8uJEWK3e91Ww-34" value="&lt;span style=&quot;font-size: 14px;&quot;&gt;数字人视频流与小车视频流合并&lt;/span&gt;" style="rounded=1;whiteSpace=wrap;html=1;shadow=0;labelBackgroundColor=none;strokeWidth=1;fontFamily=Verdana;fontSize=8;align=center;" parent="77e6c97f196da883-5" vertex="1">
          <mxGeometry x="40" y="540" width="100" height="60" as="geometry" />
        </mxCell>
        <mxCell id="77e6c97f196da883-6" value="三方直播平台" style="swimlane;html=1;startSize=20;" parent="77e6c97f196da883-1" vertex="1">
          <mxGeometry x="640" y="20" width="160" height="670" as="geometry" />
        </mxCell>
        <mxCell id="seb6zSkZ8uJEWK3e91Ww-39" value="&lt;span style=&quot;font-size: 14px;&quot;&gt;推流到第三方直播平台&lt;/span&gt;" style="rounded=1;whiteSpace=wrap;html=1;shadow=0;labelBackgroundColor=none;strokeWidth=1;fontFamily=Verdana;fontSize=8;align=center;" parent="77e6c97f196da883-6" vertex="1">
          <mxGeometry x="40" y="540" width="100" height="60" as="geometry" />
        </mxCell>
        <mxCell id="seb6zSkZ8uJEWK3e91Ww-1" style="edgeStyle=orthogonalEdgeStyle;rounded=0;orthogonalLoop=1;jettySize=auto;html=1;exitX=0.5;exitY=1;exitDx=0;exitDy=0;entryX=0;entryY=0.5;entryDx=0;entryDy=0;" parent="77e6c97f196da883-1" source="77e6c97f196da883-8" target="seb6zSkZ8uJEWK3e91Ww-11" edge="1">
          <mxGeometry relative="1" as="geometry">
            <mxPoint x="70" y="175" as="targetPoint" />
          </mxGeometry>
        </mxCell>
        <mxCell id="seb6zSkZ8uJEWK3e91Ww-28" value="" style="edgeStyle=orthogonalEdgeStyle;rounded=0;orthogonalLoop=1;jettySize=auto;html=1;exitX=1;exitY=0.5;exitDx=0;exitDy=0;entryX=0;entryY=0.5;entryDx=0;entryDy=0;" parent="77e6c97f196da883-1" source="seb6zSkZ8uJEWK3e91Ww-26" target="seb6zSkZ8uJEWK3e91Ww-23" edge="1">
          <mxGeometry relative="1" as="geometry" />
        </mxCell>
        <mxCell id="seb6zSkZ8uJEWK3e91Ww-35" value="" style="edgeStyle=orthogonalEdgeStyle;rounded=0;orthogonalLoop=1;jettySize=auto;html=1;entryX=0;entryY=0.5;entryDx=0;entryDy=0;" parent="77e6c97f196da883-1" source="seb6zSkZ8uJEWK3e91Ww-32" target="seb6zSkZ8uJEWK3e91Ww-34" edge="1">
          <mxGeometry relative="1" as="geometry" />
        </mxCell>
        <mxCell id="seb6zSkZ8uJEWK3e91Ww-43" value="" style="edgeStyle=orthogonalEdgeStyle;rounded=0;orthogonalLoop=1;jettySize=auto;html=1;" parent="77e6c97f196da883-1" source="seb6zSkZ8uJEWK3e91Ww-23" target="seb6zSkZ8uJEWK3e91Ww-29" edge="1">
          <mxGeometry relative="1" as="geometry" />
        </mxCell>
        <mxCell id="seb6zSkZ8uJEWK3e91Ww-47" style="edgeStyle=orthogonalEdgeStyle;rounded=0;orthogonalLoop=1;jettySize=auto;html=1;entryX=1;entryY=0.5;entryDx=0;entryDy=0;" parent="77e6c97f196da883-1" source="seb6zSkZ8uJEWK3e91Ww-11" target="seb6zSkZ8uJEWK3e91Ww-8" edge="1">
          <mxGeometry relative="1" as="geometry">
            <Array as="points">
              <mxPoint x="240" y="237" />
            </Array>
          </mxGeometry>
        </mxCell>
        <mxCell id="seb6zSkZ8uJEWK3e91Ww-48" value="返回场地地图" style="edgeLabel;html=1;align=center;verticalAlign=middle;resizable=0;points=[];" parent="seb6zSkZ8uJEWK3e91Ww-47" vertex="1" connectable="0">
          <mxGeometry x="-0.5254" relative="1" as="geometry">
            <mxPoint as="offset" />
          </mxGeometry>
        </mxCell>
        <mxCell id="seb6zSkZ8uJEWK3e91Ww-52" value="" style="edgeStyle=orthogonalEdgeStyle;rounded=0;orthogonalLoop=1;jettySize=auto;html=1;" parent="77e6c97f196da883-1" source="seb6zSkZ8uJEWK3e91Ww-49" target="seb6zSkZ8uJEWK3e91Ww-51" edge="1">
          <mxGeometry relative="1" as="geometry" />
        </mxCell>
        <mxCell id="jhnfsxxz-ZlzMWsmoNj1-3" value="" style="edgeStyle=orthogonalEdgeStyle;rounded=0;orthogonalLoop=1;jettySize=auto;html=1;" edge="1" parent="77e6c97f196da883-1" source="seb6zSkZ8uJEWK3e91Ww-34" target="seb6zSkZ8uJEWK3e91Ww-39">
          <mxGeometry relative="1" as="geometry" />
        </mxCell>
      </root>
    </mxGraphModel>
  </diagram>
</mxfile>
